<mxfile host="app.diagrams.net" agent="Mozilla/5.0 (Macintosh; Intel Mac OS X 10_15_7) AppleWebKit/537.36 (KHTML, like Gecko) Chrome/134.0.0.0 Safari/537.36" version="26.1.0">
  <diagram name="Page-1" id="2YBvvXClWsGukQMizWep">
    <mxGraphModel dx="954" dy="639" grid="1" gridSize="10" guides="1" tooltips="1" connect="1" arrows="1" fold="1" page="1" pageScale="1" pageWidth="850" pageHeight="1100" math="0" shadow="0">
      <root>
        <mxCell id="0" />
        <mxCell id="1" parent="0" />
        <mxCell id="ZnPgIaXPT43OJKpbCnne-1" value="&lt;b&gt;Enhanced Sequence Diagram for Add Booking Use Case&amp;nbsp;&lt;/b&gt;" style="text;html=1;align=center;verticalAlign=middle;whiteSpace=wrap;rounded=0;" vertex="1" parent="1">
          <mxGeometry x="30" y="100" width="420" height="30" as="geometry" />
        </mxCell>
        <mxCell id="ZnPgIaXPT43OJKpbCnne-2" value="BookingUI" style="shape=umlLifeline;perimeter=lifelinePerimeter;whiteSpace=wrap;html=1;container=0;dropTarget=0;collapsible=0;recursiveResize=0;outlineConnect=0;portConstraint=eastwest;newEdgeStyle={&quot;edgeStyle&quot;:&quot;elbowEdgeStyle&quot;,&quot;elbow&quot;:&quot;vertical&quot;,&quot;curved&quot;:0,&quot;rounded&quot;:0};" vertex="1" parent="1">
          <mxGeometry x="200" y="160" width="100" height="440" as="geometry" />
        </mxCell>
        <mxCell id="ZnPgIaXPT43OJKpbCnne-3" style="edgeStyle=elbowEdgeStyle;rounded=0;orthogonalLoop=1;jettySize=auto;html=1;elbow=vertical;curved=0;" edge="1" parent="ZnPgIaXPT43OJKpbCnne-2" source="ZnPgIaXPT43OJKpbCnne-4" target="ZnPgIaXPT43OJKpbCnne-2">
          <mxGeometry relative="1" as="geometry" />
        </mxCell>
        <mxCell id="ZnPgIaXPT43OJKpbCnne-4" value="" style="html=1;points=[];perimeter=orthogonalPerimeter;outlineConnect=0;targetShapes=umlLifeline;portConstraint=eastwest;newEdgeStyle={&quot;edgeStyle&quot;:&quot;elbowEdgeStyle&quot;,&quot;elbow&quot;:&quot;vertical&quot;,&quot;curved&quot;:0,&quot;rounded&quot;:0};" vertex="1" parent="ZnPgIaXPT43OJKpbCnne-2">
          <mxGeometry x="45" y="70" width="10" height="350" as="geometry" />
        </mxCell>
        <mxCell id="ZnPgIaXPT43OJKpbCnne-6" value="" style="shape=umlLifeline;perimeter=lifelinePerimeter;whiteSpace=wrap;html=1;container=1;dropTarget=0;collapsible=0;recursiveResize=0;outlineConnect=0;portConstraint=eastwest;newEdgeStyle={&quot;curved&quot;:0,&quot;rounded&quot;:0};participant=umlActor;" vertex="1" parent="1">
          <mxGeometry x="50" y="184" width="20" height="416" as="geometry" />
        </mxCell>
        <mxCell id="ZnPgIaXPT43OJKpbCnne-7" value="1.bookProperty()" style="html=1;verticalAlign=bottom;startArrow=oval;endArrow=block;startSize=8;edgeStyle=elbowEdgeStyle;elbow=vertical;curved=0;rounded=0;" edge="1" parent="1" source="ZnPgIaXPT43OJKpbCnne-6">
          <mxGeometry relative="1" as="geometry">
            <mxPoint x="89.5" y="241" as="sourcePoint" />
            <mxPoint x="245" y="241" as="targetPoint" />
          </mxGeometry>
        </mxCell>
        <mxCell id="ZnPgIaXPT43OJKpbCnne-8" value="Tenant" style="text;html=1;align=center;verticalAlign=middle;whiteSpace=wrap;rounded=0;" vertex="1" parent="1">
          <mxGeometry x="60" y="210" width="60" height="30" as="geometry" />
        </mxCell>
        <mxCell id="ZnPgIaXPT43OJKpbCnne-9" value="" style="endArrow=classic;html=1;rounded=0;" edge="1" parent="1" source="ZnPgIaXPT43OJKpbCnne-6">
          <mxGeometry width="50" height="50" relative="1" as="geometry">
            <mxPoint x="89.5" y="388" as="sourcePoint" />
            <mxPoint x="245" y="388" as="targetPoint" />
          </mxGeometry>
        </mxCell>
        <mxCell id="ZnPgIaXPT43OJKpbCnne-10" value="6.details = enterBookingDetails()" style="text;html=1;align=center;verticalAlign=middle;whiteSpace=wrap;rounded=0;" vertex="1" parent="1">
          <mxGeometry x="63" y="362" width="180" height="30" as="geometry" />
        </mxCell>
        <mxCell id="ZnPgIaXPT43OJKpbCnne-11" value="" style="html=1;verticalAlign=bottom;endArrow=open;dashed=1;endSize=8;curved=0;rounded=0;" edge="1" parent="1">
          <mxGeometry x="-1" y="97" relative="1" as="geometry">
            <mxPoint x="416" y="339" as="sourcePoint" />
            <mxPoint x="256" y="339" as="targetPoint" />
            <mxPoint x="95" y="-77" as="offset" />
          </mxGeometry>
        </mxCell>
        <mxCell id="ZnPgIaXPT43OJKpbCnne-12" value="" style="endArrow=classic;html=1;rounded=0;" edge="1" parent="1">
          <mxGeometry width="50" height="50" relative="1" as="geometry">
            <mxPoint x="254.5" y="449" as="sourcePoint" />
            <mxPoint x="420" y="449" as="targetPoint" />
          </mxGeometry>
        </mxCell>
        <mxCell id="ZnPgIaXPT43OJKpbCnne-13" value="7. confirnBooking()" style="text;html=1;align=center;verticalAlign=middle;whiteSpace=wrap;rounded=0;" vertex="1" parent="1">
          <mxGeometry x="75" y="410" width="110" height="22" as="geometry" />
        </mxCell>
        <mxCell id="ZnPgIaXPT43OJKpbCnne-16" value="BookingService" style="shape=umlLifeline;perimeter=lifelinePerimeter;whiteSpace=wrap;html=1;container=1;dropTarget=0;collapsible=0;recursiveResize=0;outlineConnect=0;portConstraint=eastwest;newEdgeStyle={&quot;curved&quot;:0,&quot;rounded&quot;:0};" vertex="1" parent="1">
          <mxGeometry x="375" y="160" width="100" height="440" as="geometry" />
        </mxCell>
        <mxCell id="ZnPgIaXPT43OJKpbCnne-20" value="" style="html=1;points=[[0,0,0,0,5],[0,1,0,0,-5],[1,0,0,0,5],[1,1,0,0,-5]];perimeter=orthogonalPerimeter;outlineConnect=0;targetShapes=umlLifeline;portConstraint=eastwest;newEdgeStyle={&quot;curved&quot;:0,&quot;rounded&quot;:0};" vertex="1" parent="ZnPgIaXPT43OJKpbCnne-16">
          <mxGeometry x="45" y="80" width="10" height="110" as="geometry" />
        </mxCell>
        <mxCell id="ZnPgIaXPT43OJKpbCnne-30" value="" style="html=1;points=[[0,0,0,0,5],[0,1,0,0,-5],[1,0,0,0,5],[1,1,0,0,-5]];perimeter=orthogonalPerimeter;outlineConnect=0;targetShapes=umlLifeline;portConstraint=eastwest;newEdgeStyle={&quot;curved&quot;:0,&quot;rounded&quot;:0};" vertex="1" parent="ZnPgIaXPT43OJKpbCnne-16">
          <mxGeometry x="45" y="270" width="10" height="110" as="geometry" />
        </mxCell>
        <mxCell id="ZnPgIaXPT43OJKpbCnne-17" value="BookingDAO" style="shape=umlLifeline;perimeter=lifelinePerimeter;whiteSpace=wrap;html=1;container=1;dropTarget=0;collapsible=0;recursiveResize=0;outlineConnect=0;portConstraint=eastwest;newEdgeStyle={&quot;curved&quot;:0,&quot;rounded&quot;:0};" vertex="1" parent="1">
          <mxGeometry x="550" y="160" width="100" height="440" as="geometry" />
        </mxCell>
        <mxCell id="ZnPgIaXPT43OJKpbCnne-23" value="" style="html=1;points=[[0,0,0,0,5],[0,1,0,0,-5],[1,0,0,0,5],[1,1,0,0,-5]];perimeter=orthogonalPerimeter;outlineConnect=0;targetShapes=umlLifeline;portConstraint=eastwest;newEdgeStyle={&quot;curved&quot;:0,&quot;rounded&quot;:0};" vertex="1" parent="ZnPgIaXPT43OJKpbCnne-17">
          <mxGeometry x="45" y="110" width="10" height="50" as="geometry" />
        </mxCell>
        <mxCell id="ZnPgIaXPT43OJKpbCnne-18" value="" style="endArrow=classic;html=1;rounded=0;" edge="1" parent="1">
          <mxGeometry width="50" height="50" relative="1" as="geometry">
            <mxPoint x="257" y="260" as="sourcePoint" />
            <mxPoint x="420" y="260" as="targetPoint" />
          </mxGeometry>
        </mxCell>
        <mxCell id="ZnPgIaXPT43OJKpbCnne-19" value="&lt;span style=&quot;color: rgb(0, 0, 0); font-family: Helvetica; font-size: 12px; font-style: normal; font-variant-ligatures: normal; font-variant-caps: normal; font-weight: 400; letter-spacing: normal; orphans: 2; text-align: center; text-indent: 0px; text-transform: none; widows: 2; word-spacing: 0px; -webkit-text-stroke-width: 0px; white-space: normal; background-color: rgb(251, 251, 251); text-decoration-thickness: initial; text-decoration-style: initial; text-decoration-color: initial; float: none; display: inline !important;&quot;&gt;2.validateProperty()&lt;/span&gt;" style="text;whiteSpace=wrap;html=1;" vertex="1" parent="1">
          <mxGeometry x="290" y="230" width="120" height="20" as="geometry" />
        </mxCell>
        <mxCell id="ZnPgIaXPT43OJKpbCnne-22" value="" style="endArrow=classic;html=1;rounded=0;" edge="1" parent="1" target="ZnPgIaXPT43OJKpbCnne-23">
          <mxGeometry width="50" height="50" relative="1" as="geometry">
            <mxPoint x="430" y="280" as="sourcePoint" />
            <mxPoint x="590" y="280" as="targetPoint" />
          </mxGeometry>
        </mxCell>
        <mxCell id="ZnPgIaXPT43OJKpbCnne-24" value="&lt;span style=&quot;color: rgb(0, 0, 0); font-family: Helvetica; font-size: 12px; font-style: normal; font-variant-ligatures: normal; font-variant-caps: normal; font-weight: 400; letter-spacing: normal; orphans: 2; text-align: center; text-indent: 0px; text-transform: none; widows: 2; word-spacing: 0px; -webkit-text-stroke-width: 0px; white-space: normal; background-color: rgb(251, 251, 251); text-decoration-thickness: initial; text-decoration-style: initial; text-decoration-color: initial; float: none; display: inline !important;&quot;&gt;3.checkAvailability()&lt;/span&gt;" style="text;whiteSpace=wrap;html=1;" vertex="1" parent="1">
          <mxGeometry x="470" y="250" width="140" height="40" as="geometry" />
        </mxCell>
        <mxCell id="ZnPgIaXPT43OJKpbCnne-25" value="" style="html=1;verticalAlign=bottom;endArrow=open;dashed=1;endSize=8;curved=0;rounded=0;" edge="1" parent="1" target="ZnPgIaXPT43OJKpbCnne-20">
          <mxGeometry x="-1" y="-235" relative="1" as="geometry">
            <mxPoint x="595" y="309.5" as="sourcePoint" />
            <mxPoint x="440" y="309.5" as="targetPoint" />
            <mxPoint x="235" y="235" as="offset" />
          </mxGeometry>
        </mxCell>
        <mxCell id="ZnPgIaXPT43OJKpbCnne-26" value="4.availabilityStatus" style="text;html=1;align=center;verticalAlign=middle;whiteSpace=wrap;rounded=0;" vertex="1" parent="1">
          <mxGeometry x="479" y="287" width="60" height="30" as="geometry" />
        </mxCell>
        <mxCell id="ZnPgIaXPT43OJKpbCnne-27" value="&lt;span style=&quot;color: rgb(0, 0, 0); font-family: Helvetica; font-size: 11px; font-style: normal; font-variant-ligatures: normal; font-variant-caps: normal; font-weight: 400; letter-spacing: normal; orphans: 2; text-align: center; text-indent: 0px; text-transform: none; widows: 2; word-spacing: 0px; -webkit-text-stroke-width: 0px; white-space: nowrap; background-color: rgb(255, 255, 255); text-decoration-thickness: initial; text-decoration-style: initial; text-decoration-color: initial; float: none; display: inline !important;&quot;&gt;5.promptBookingDtails()&lt;/span&gt;" style="text;whiteSpace=wrap;html=1;" vertex="1" parent="1">
          <mxGeometry x="290" y="312" width="150" height="40" as="geometry" />
        </mxCell>
        <mxCell id="ZnPgIaXPT43OJKpbCnne-33" value="8.processBooking(details)" style="text;html=1;align=center;verticalAlign=middle;whiteSpace=wrap;rounded=0;" vertex="1" parent="1">
          <mxGeometry x="300" y="420" width="60" height="30" as="geometry" />
        </mxCell>
        <mxCell id="ZnPgIaXPT43OJKpbCnne-34" value="" style="endArrow=classic;html=1;rounded=0;" edge="1" parent="1">
          <mxGeometry width="50" height="50" relative="1" as="geometry">
            <mxPoint x="60" y="432" as="sourcePoint" />
            <mxPoint x="245" y="432" as="targetPoint" />
          </mxGeometry>
        </mxCell>
        <mxCell id="ZnPgIaXPT43OJKpbCnne-40" value="" style="endArrow=classic;html=1;rounded=0;" edge="1" parent="1" source="ZnPgIaXPT43OJKpbCnne-43">
          <mxGeometry width="50" height="50" relative="1" as="geometry">
            <mxPoint x="430" y="470" as="sourcePoint" />
            <mxPoint x="600" y="470" as="targetPoint" />
          </mxGeometry>
        </mxCell>
        <mxCell id="ZnPgIaXPT43OJKpbCnne-41" value="9.saveBooking(details)" style="text;html=1;align=center;verticalAlign=middle;whiteSpace=wrap;rounded=0;" vertex="1" parent="1">
          <mxGeometry x="475" y="440" width="60" height="30" as="geometry" />
        </mxCell>
        <mxCell id="ZnPgIaXPT43OJKpbCnne-42" value="" style="endArrow=classic;html=1;rounded=0;" edge="1" parent="1" target="ZnPgIaXPT43OJKpbCnne-43">
          <mxGeometry width="50" height="50" relative="1" as="geometry">
            <mxPoint x="430" y="470" as="sourcePoint" />
            <mxPoint x="600" y="470" as="targetPoint" />
          </mxGeometry>
        </mxCell>
        <mxCell id="ZnPgIaXPT43OJKpbCnne-43" value="" style="html=1;points=[[0,0,0,0,5],[0,1,0,0,-5],[1,0,0,0,5],[1,1,0,0,-5]];perimeter=orthogonalPerimeter;outlineConnect=0;targetShapes=umlLifeline;portConstraint=eastwest;newEdgeStyle={&quot;curved&quot;:0,&quot;rounded&quot;:0};" vertex="1" parent="1">
          <mxGeometry x="594" y="460" width="10" height="50" as="geometry" />
        </mxCell>
        <mxCell id="ZnPgIaXPT43OJKpbCnne-45" value="" style="html=1;verticalAlign=bottom;endArrow=open;dashed=1;endSize=8;curved=0;rounded=0;" edge="1" parent="1">
          <mxGeometry x="-1" y="-235" relative="1" as="geometry">
            <mxPoint x="595" y="497.5" as="sourcePoint" />
            <mxPoint x="430" y="498" as="targetPoint" />
            <mxPoint x="235" y="235" as="offset" />
          </mxGeometry>
        </mxCell>
        <mxCell id="ZnPgIaXPT43OJKpbCnne-46" value="10.bookingSaved" style="text;html=1;align=center;verticalAlign=middle;whiteSpace=wrap;rounded=0;" vertex="1" parent="1">
          <mxGeometry x="479" y="470" width="60" height="30" as="geometry" />
        </mxCell>
        <mxCell id="ZnPgIaXPT43OJKpbCnne-47" value="" style="html=1;verticalAlign=bottom;endArrow=open;dashed=1;endSize=8;curved=0;rounded=0;" edge="1" parent="1">
          <mxGeometry x="-1" y="-235" relative="1" as="geometry">
            <mxPoint x="595" y="497.5" as="sourcePoint" />
            <mxPoint x="430" y="498" as="targetPoint" />
            <mxPoint x="235" y="235" as="offset" />
          </mxGeometry>
        </mxCell>
        <mxCell id="ZnPgIaXPT43OJKpbCnne-48" value="" style="html=1;verticalAlign=bottom;endArrow=open;dashed=1;endSize=8;curved=0;rounded=0;" edge="1" parent="1" target="ZnPgIaXPT43OJKpbCnne-4">
          <mxGeometry x="-1" y="-235" relative="1" as="geometry">
            <mxPoint x="415" y="530" as="sourcePoint" />
            <mxPoint x="260" y="530" as="targetPoint" />
            <mxPoint x="235" y="235" as="offset" />
          </mxGeometry>
        </mxCell>
        <mxCell id="ZnPgIaXPT43OJKpbCnne-49" value="11.bookingRequestSubmitted()" style="text;html=1;align=center;verticalAlign=middle;whiteSpace=wrap;rounded=0;" vertex="1" parent="1">
          <mxGeometry x="290" y="500" width="100" height="30" as="geometry" />
        </mxCell>
      </root>
    </mxGraphModel>
  </diagram>
</mxfile>
